<svg width="723" height="74" viewBox="0 0 723 74" fill="none" xmlns="http://www.w3.org/2000/svg">
<path d="M37.3 52.8C37.3 50.7333 36.4333 49.1 34.7 47.9C32.9667 46.7 30.8 45.6 28.2 44.6C25.6667 43.6 22.9 42.6 19.9 41.6C16.9 40.6 14.1 39.2667 11.5 37.6C8.96667 35.9333 6.83333 33.8333 5.1 31.3C3.36667 28.7667 2.5 25.4667 2.5 21.4C2.5 17.9333 3.1 14.9 4.3 12.3C5.56667 9.63333 7.3 7.46666 9.5 5.79999C11.7667 4.06666 14.4667 2.76666 17.6 1.9C20.8 1.03333 24.3 0.599995 28.1 0.599995C32.5 0.599995 36.6667 0.999996 40.6 1.8C44.6 2.53333 47.8667 3.6 50.4 5L45.7 17.4C44.9 16.9333 43.8667 16.4667 42.6 16C41.4 15.4667 40 15.0333 38.4 14.7C36.8 14.3 35.1 14 33.3 13.8C31.5 13.5333 29.6667 13.4 27.8 13.4C24.4667 13.4 21.8667 14 20 15.2C18.2 16.3333 17.3 17.9333 17.3 20C17.3 22.0667 18.1667 23.7333 19.9 25C21.6333 26.2 23.7667 27.3333 26.3 28.4C28.9 29.4 31.7 30.4333 34.7 31.5C37.7 32.5 40.4667 33.8333 43 35.5C45.6 37.1 47.7667 39.1333 49.5 41.6C51.2333 44.0667 52.1 47.2333 52.1 51.1C52.1 54.9667 51.4333 58.3 50.1 61.1C48.7667 63.9 46.8667 66.2333 44.4 68.1C42 69.9 39.1 71.2333 35.7 72.1C32.3 72.9667 28.5667 73.4 24.5 73.4C21.7667 73.4 19.1667 73.2333 16.7 72.9C14.3 72.6333 12.0667 72.3 10 71.9C7.93333 71.4333 6.1 70.9667 4.5 70.5C2.96667 69.9667 1.73333 69.4667 0.8 69L5.7 56.5C6.43333 56.9 7.43333 57.3333 8.7 57.8C10.0333 58.2667 11.5 58.7333 13.1 59.2C14.7 59.6 16.4 59.9333 18.2 60.2C20.0667 60.4667 21.9333 60.6 23.8 60.6C28.2 60.6 31.5333 59.9667 33.8 58.7C36.1333 57.4333 37.3 55.4667 37.3 52.8ZM107.62 67.2C105.353 68.9333 102.253 70.4333 98.3195 71.7C94.4529 72.9 90.2862 73.5 85.8195 73.5C76.8195 73.5 70.2195 71.0333 66.0195 66.1C61.8195 61.1667 59.7195 54.4 59.7195 45.8C59.7195 36.6667 62.0862 29.7667 66.8195 25.1C71.5529 20.3667 78.2195 18 86.8195 18C89.6195 18 92.3862 18.3667 95.1195 19.1C97.8529 19.7667 100.286 20.9333 102.42 22.6C104.553 24.2 106.253 26.4 107.52 29.2C108.853 31.9333 109.52 35.3333 109.52 39.4C109.52 40.8 109.42 42.3333 109.22 44C109.086 45.6667 108.82 47.4 108.42 49.2H73.4195C73.7529 53.7333 75.0529 57.1 77.3195 59.3C79.6529 61.4333 83.4195 62.5 88.6195 62.5C91.7529 62.5 94.5529 62.0667 97.0195 61.2C99.5529 60.2667 101.486 59.3333 102.82 58.4L107.62 67.2ZM86.6195 29C82.4862 29 79.4195 30.1333 77.4195 32.4C75.4195 34.6 74.2529 37.4333 73.9195 40.9H96.5195C96.7862 37.2333 96.1195 34.3333 94.5195 32.2C92.9195 30.0667 90.2862 29 86.6195 29ZM136.395 53.6C136.395 58.6667 138.028 61.2 141.295 61.2C142.228 61.2 143.095 61.1333 143.895 61C144.761 60.8 145.761 60.5 146.895 60.1L148.595 71C147.261 71.6 145.361 72.1667 142.895 72.7C140.495 73.3 137.995 73.6 135.395 73.6C131.195 73.6 127.961 72.6667 125.695 70.8C123.495 68.9333 122.395 65.8667 122.395 61.6V2H136.395V53.6ZM200.686 67.2C198.419 68.9333 195.319 70.4333 191.386 71.7C187.519 72.9 183.353 73.5 178.886 73.5C169.886 73.5 163.286 71.0333 159.086 66.1C154.886 61.1667 152.786 54.4 152.786 45.8C152.786 36.6667 155.153 29.7667 159.886 25.1C164.619 20.3667 171.286 18 179.886 18C182.686 18 185.453 18.3667 188.186 19.1C190.919 19.7667 193.353 20.9333 195.486 22.6C197.619 24.2 199.319 26.4 200.586 29.2C201.919 31.9333 202.586 35.3333 202.586 39.4C202.586 40.8 202.486 42.3333 202.286 44C202.153 45.6667 201.886 47.4 201.486 49.2H166.486C166.819 53.7333 168.119 57.1 170.386 59.3C172.719 61.4333 176.486 62.5 181.686 62.5C184.819 62.5 187.619 62.0667 190.086 61.2C192.619 60.2667 194.553 59.3333 195.886 58.4L200.686 67.2ZM179.686 29C175.553 29 172.486 30.1333 170.486 32.4C168.486 34.6 167.319 37.4333 166.986 40.9H189.586C189.853 37.2333 189.186 34.3333 187.586 32.2C185.986 30.0667 183.353 29 179.686 29ZM254.175 68.8C251.908 70.3333 249.175 71.5 245.975 72.3C242.842 73.1 239.575 73.5 236.175 73.5C231.642 73.5 227.808 72.8333 224.675 71.5C221.608 70.1667 219.075 68.2667 217.075 65.8C215.142 63.3333 213.742 60.4333 212.875 57.1C212.008 53.7 211.575 49.9333 211.575 45.8C211.575 37.0667 213.708 30.2667 217.975 25.4C222.308 20.4667 228.575 18 236.775 18C240.775 18 244.042 18.3333 246.575 19C249.175 19.6 251.475 20.4 253.475 21.4L250.075 32.6C248.342 31.8667 246.608 31.3333 244.875 31C243.208 30.6 241.242 30.4 238.975 30.4C234.775 30.4 231.542 31.6333 229.275 34.1C227.075 36.5 225.975 40.4 225.975 45.8C225.975 47.9333 226.242 49.9333 226.775 51.8C227.308 53.6 228.142 55.2 229.275 56.6C230.408 58 231.842 59.1 233.575 59.9C235.308 60.7 237.342 61.1 239.675 61.1C242.475 61.1 244.675 60.8667 246.275 60.4C247.942 59.8667 249.508 59.1667 250.975 58.3L254.175 68.8ZM258.175 19.5H266.175V12.3L280.175 8.6V19.5H294.275V31.2H280.175V49.4C280.175 53.6 280.575 56.6333 281.375 58.5C282.242 60.3 283.908 61.2 286.375 61.2C287.908 61.2 289.208 61.1 290.275 60.9C291.342 60.6333 292.475 60.2333 293.675 59.7L296.575 70.2C294.442 71.1333 291.975 71.9333 289.175 72.6C286.442 73.2667 283.775 73.6 281.175 73.6C275.975 73.6 272.175 72.3333 269.775 69.8C267.375 67.2 266.175 63.0667 266.175 57.4V31.2H258.175V19.5ZM332.141 23.1C335.141 21.7667 338.808 20.6667 343.141 19.8C347.541 18.9333 352.075 18.5 356.741 18.5C360.408 18.5 363.475 18.9333 365.941 19.8C368.475 20.6667 370.475 21.9333 371.941 23.6C373.408 25.2 374.441 27.1667 375.041 29.5C375.708 31.7667 376.041 34.3 376.041 37.1C376.041 40.5 375.908 43.8667 375.641 47.2C375.375 50.5333 375.241 54.0667 375.241 57.8C375.241 60.3333 375.408 62.8 375.741 65.2C376.075 67.6 376.608 69.9 377.341 72.1H365.941L363.641 64.3H362.441C360.708 66.6333 358.508 68.6333 355.841 70.3C353.175 71.9667 349.741 72.8 345.541 72.8C343.008 72.8 340.675 72.4333 338.541 71.7C336.475 70.9667 334.675 69.9333 333.141 68.6C331.675 67.2 330.508 65.5667 329.641 63.7C328.841 61.8333 328.441 59.8 328.441 57.6C328.441 51.6667 330.408 47.2 334.341 44.2C338.341 41.1333 344.375 39.6 352.441 39.6C354.308 39.6 356.175 39.7667 358.041 40.1C359.908 40.3667 361.208 40.5667 361.941 40.7C362.141 39.3 362.241 38.1 362.241 37.1C362.241 34.5667 361.608 32.7 360.341 31.5C359.075 30.3 356.708 29.7 353.241 29.7C350.041 29.7 346.908 30.1 343.841 30.9C340.841 31.6333 338.175 32.5667 335.841 33.7L332.141 23.1ZM350.441 61.6C353.575 61.6 356.075 60.8667 357.941 59.4C359.808 57.9333 361.175 56.4 362.041 54.8V48.8C361.708 48.6667 361.175 48.5333 360.441 48.4C359.775 48.2667 359.008 48.1333 358.141 48C357.341 47.8667 356.508 47.7667 355.641 47.7C354.841 47.6333 354.108 47.6 353.441 47.6C349.841 47.6 347.175 48.2667 345.441 49.6C343.708 50.8667 342.841 52.4667 342.841 54.4C342.841 56.8 343.508 58.6 344.841 59.8C346.241 61 348.108 61.6 350.441 61.6ZM450.988 72V44.6C450.988 39.5333 450.455 35.9 449.388 33.7C448.322 31.5 446.122 30.4 442.788 30.4C439.988 30.4 437.755 31.1 436.088 32.5C434.422 33.8333 433.122 35.6 432.188 37.8V72H418.188V19.5H428.988L430.588 26.8H431.888C432.755 25.6667 433.755 24.5667 434.888 23.5C436.022 22.4333 437.255 21.5 438.588 20.7C439.988 19.9 441.522 19.2667 443.188 18.8C444.922 18.2667 446.855 18 448.988 18C452.522 18 455.455 18.8 457.788 20.4C460.188 21.9333 462.088 24.5333 463.488 28.2C465.422 25 467.755 22.5 470.488 20.7C473.288 18.9 476.522 18 480.188 18C483.388 18 486.088 18.3667 488.288 19.1C490.555 19.8333 492.388 21.1 493.788 22.9C495.188 24.7 496.188 27.1333 496.788 30.2C497.455 33.2667 497.788 37.1 497.788 41.7V72H483.788V43.9C483.788 41.7 483.688 39.7667 483.488 38.1C483.288 36.4333 482.888 35.0333 482.288 33.9C481.688 32.7 480.822 31.8333 479.688 31.3C478.622 30.7 477.188 30.4 475.388 30.4C472.588 30.4 470.322 31.1333 468.588 32.6C466.922 34 465.722 35.9667 464.988 38.5V72H450.988ZM509.231 45.8C509.231 37.1333 511.531 30.3333 516.131 25.4C520.731 20.4667 527.298 18 535.831 18C540.298 18 544.198 18.7 547.531 20.1C550.865 21.5 553.631 23.4667 555.831 26C558.031 28.4667 559.665 31.4 560.731 34.8C561.865 38.1333 562.431 41.8 562.431 45.8C562.431 50.0667 561.831 53.9333 560.631 57.4C559.431 60.8 557.698 63.7 555.431 66.1C553.165 68.5 550.365 70.3333 547.031 71.6C543.765 72.8667 540.031 73.5 535.831 73.5C531.298 73.5 527.365 72.8 524.031 71.4C520.698 70 517.931 68.0667 515.731 65.6C513.531 63.0667 511.898 60.1333 510.831 56.8C509.765 53.4 509.231 49.7333 509.231 45.8ZM523.631 45.8C523.631 48 523.865 50.0667 524.331 52C524.798 53.9333 525.498 55.6333 526.431 57.1C527.431 58.5 528.698 59.6333 530.231 60.5C531.765 61.3667 533.631 61.8 535.831 61.8C543.965 61.8 548.031 56.4667 548.031 45.8C548.031 43.4667 547.798 41.3333 547.331 39.4C546.931 37.4 546.231 35.7 545.231 34.3C544.298 32.8333 543.031 31.7 541.431 30.9C539.898 30.1 538.031 29.7 535.831 29.7C532.031 29.7 529.031 30.9667 526.831 33.5C524.698 36.0333 523.631 40.1333 523.631 45.8ZM621.652 53.6C621.652 56.4 621.686 59.3 621.752 62.3C621.819 65.3 622.119 68.5667 622.652 72.1H612.952L610.952 64.8H609.652C608.119 67.4667 605.919 69.6 603.052 71.2C600.252 72.7333 596.886 73.5 592.952 73.5C585.952 73.5 580.519 71.3333 576.652 67C572.786 62.6 570.852 55.8333 570.852 46.7C570.852 42.3 571.386 38.3333 572.452 34.8C573.586 31.2667 575.219 28.2667 577.352 25.8C579.552 23.3333 582.252 21.4333 585.452 20.1C588.652 18.7667 592.352 18.1 596.552 18.1C598.886 18.1 600.886 18.3 602.552 18.7C604.286 19.0333 605.986 19.4667 607.652 20V2H621.652V53.6ZM596.552 61.8C599.686 61.8 602.119 61.1 603.852 59.7C605.586 58.2333 606.852 56.1667 607.652 53.5V32.5C606.452 31.5667 605.152 30.9 603.752 30.5C602.419 30.0333 600.652 29.8 598.452 29.8C593.986 29.8 590.652 31.1 588.452 33.7C586.319 36.3 585.252 40.7667 585.252 47.1C585.252 51.5 586.152 55.0667 587.952 57.8C589.819 60.4667 592.686 61.8 596.552 61.8ZM681.545 67.2C679.279 68.9333 676.179 70.4333 672.245 71.7C668.379 72.9 664.212 73.5 659.745 73.5C650.745 73.5 644.145 71.0333 639.945 66.1C635.745 61.1667 633.645 54.4 633.645 45.8C633.645 36.6667 636.012 29.7667 640.745 25.1C645.479 20.3667 652.145 18 660.745 18C663.545 18 666.312 18.3667 669.045 19.1C671.779 19.7667 674.212 20.9333 676.345 22.6C678.479 24.2 680.179 26.4 681.445 29.2C682.779 31.9333 683.445 35.3333 683.445 39.4C683.445 40.8 683.345 42.3333 683.145 44C683.012 45.6667 682.745 47.4 682.345 49.2H647.345C647.679 53.7333 648.979 57.1 651.245 59.3C653.579 61.4333 657.345 62.5 662.545 62.5C665.679 62.5 668.479 62.0667 670.945 61.2C673.479 60.2667 675.412 59.3333 676.745 58.4L681.545 67.2ZM660.545 29C656.412 29 653.345 30.1333 651.345 32.4C649.345 34.6 648.179 37.4333 647.845 40.9H670.445C670.712 37.2333 670.045 34.3333 668.445 32.2C666.845 30.0667 664.212 29 660.545 29ZM710.32 53.6C710.32 58.6667 711.954 61.2 715.22 61.2C716.154 61.2 717.02 61.1333 717.82 61C718.687 60.8 719.687 60.5 720.82 60.1L722.52 71C721.187 71.6 719.287 72.1667 716.82 72.7C714.42 73.3 711.92 73.6 709.32 73.6C705.12 73.6 701.887 72.6667 699.62 70.8C697.42 68.9333 696.32 65.8667 696.32 61.6V2H710.32V53.6Z" fill="white"/>
</svg>
