<svg width="56" height="56" viewBox="0 0 56 56" fill="none" xmlns="http://www.w3.org/2000/svg">
<path d="M23.5993 25.6425L2.59889 15.1302C2.31756 14.9805 2.00099 14.9096 1.68267 14.925C1.36435 14.9404 1.05611 15.0416 0.790559 15.2178C0.525008 15.394 0.312017 15.6387 0.174114 15.926C0.0362104 16.2133 -0.0214785 16.5326 0.00714898 16.85V40.1272C0.0103307 40.4254 0.0899363 40.7179 0.238359 40.9765C0.386781 41.2352 0.599062 41.4515 0.854915 41.6048L21.8068 54.7088C22.0813 54.888 22.3997 54.9886 22.7273 54.9995C22.9563 54.9995 23.1831 54.9543 23.3947 54.8667C23.6063 54.7791 23.7985 54.6506 23.9605 54.4887C24.1224 54.3267 24.2509 54.1345 24.3385 53.9229C24.4261 53.7113 24.4713 53.4845 24.4713 53.2555V27.2169C24.4828 26.9 24.4077 26.586 24.254 26.3086C24.1004 26.0311 23.874 25.8009 23.5993 25.6425ZM55.2088 14.888C54.9525 14.7481 54.6652 14.6748 54.3732 14.6748C54.0812 14.6748 53.7938 14.7481 53.5375 14.888L29.0734 25.6425C28.7633 25.779 28.4996 26.0029 28.3146 26.2868C28.1297 26.5707 28.0314 26.9023 28.0319 27.2412V53.2797C28.0334 53.5851 28.115 53.8848 28.2687 54.1487C28.4224 54.4126 28.6427 54.6316 28.9076 54.7836C29.1724 54.9357 29.4726 55.0155 29.778 55.0151C30.0834 55.0147 30.3833 54.9342 30.6478 54.7815L55.0877 40.7812C55.3516 40.6289 55.5709 40.4101 55.7239 40.1466C55.8769 39.8831 55.9582 39.5841 55.9597 39.2794V16.3655C55.9669 16.0763 55.9021 15.7898 55.771 15.5319C55.6399 15.2739 55.4467 15.0527 55.2088 14.888ZM52.3264 10.407C52.3105 10.0554 52.1887 9.71692 51.9768 9.43592C51.765 9.15493 51.4731 8.94458 51.1396 8.83253L29.0734 1.05731C28.7346 0.949648 28.3707 0.949648 28.0319 1.05731L4.41553 9.31697C4.08678 9.42602 3.79795 9.63049 3.58585 9.90432C3.37375 10.1782 3.24799 10.5089 3.22461 10.8545C3.20122 11.2001 3.28127 11.5448 3.45454 11.8447C3.62782 12.1446 3.88647 12.3861 4.19754 12.5385L25.1979 23.0508C25.4401 23.1653 25.7051 23.2233 25.973 23.2203C26.2049 23.2667 26.4436 23.2667 26.6754 23.2203L51.1638 12.3689C51.5608 12.2359 51.8968 11.9645 52.1102 11.6043C52.3237 11.2441 52.4004 10.8191 52.3264 10.407Z" fill="white"/>
</svg>
