<svg width="82" height="50" viewBox="0 0 82 50" fill="none" xmlns="http://www.w3.org/2000/svg">
<path d="M41.0001 0.5C17.7251 0.5 0.166748 9.27917 0.166748 20.9167C0.166748 30.9208 13.1926 38.8017 31.6492 40.8433L29.9342 42.5175C29.5515 42.8971 29.2477 43.3487 29.0404 43.8463C28.8331 44.3439 28.7264 44.8776 28.7264 45.4167C28.7264 45.9557 28.8331 46.4894 29.0404 46.987C29.2477 47.4846 29.5515 47.9362 29.9342 48.3158C30.3138 48.6986 30.7655 49.0023 31.2631 49.2096C31.7607 49.4169 32.2944 49.5237 32.8334 49.5237C33.3725 49.5237 33.9062 49.4169 34.4038 49.2096C34.9014 49.0023 35.353 48.6986 35.7326 48.3158L43.8992 40.1492C44.271 39.7608 44.5624 39.3029 44.7567 38.8017C45.1652 37.8075 45.1652 36.6925 44.7567 35.6983C44.5624 35.1971 44.271 34.7392 43.8992 34.3508L35.7326 26.1842C34.9637 25.4153 33.9208 24.9833 32.8334 24.9833C31.746 24.9833 30.7032 25.4153 29.9342 26.1842C29.1653 26.9531 28.7334 27.9959 28.7334 29.0833C28.7334 30.1707 29.1653 31.2136 29.9342 31.9825L30.4242 32.4317C16.5001 30.4717 8.33342 25 8.33342 20.9167C8.33342 15.935 21.0734 8.66667 41.0001 8.66667C60.9267 8.66667 73.6667 15.935 73.6667 20.9167C73.6667 24.3058 67.7459 29.0833 56.4759 31.5333C55.9425 31.6355 55.4348 31.8431 54.9826 32.144C54.5304 32.4448 54.1427 32.8328 53.8423 33.2853C53.5419 33.7378 53.3348 34.2457 53.2331 34.7792C53.1314 35.3128 53.1372 35.8612 53.2501 36.3925C53.3616 36.9186 53.5759 37.4175 53.8807 37.8605C54.1856 38.3035 54.5749 38.682 55.0264 38.9742C55.4779 39.2663 55.9827 39.4664 56.5117 39.5629C57.0408 39.6595 57.5837 39.6505 58.1092 39.5367C73.0134 36.27 81.8334 29.3283 81.8334 20.9167C81.8334 9.27917 64.2751 0.5 41.0001 0.5Z" fill="white"/>
</svg>
